<svg width="194" height="24" viewBox="0 0 194 24" fill="none" xmlns="http://www.w3.org/2000/svg">
<path d="M193.821 7.57047C194.136 7.11687 194.024 6.49375 193.57 6.17868L186.179 1.0443C185.725 0.729232 185.102 0.841529 184.787 1.29512C184.472 1.74872 184.584 2.37185 185.038 2.68692L191.608 7.2508L187.044 13.8213C186.729 14.2749 186.842 14.898 187.295 15.2131C187.749 15.5281 188.372 15.4158 188.687 14.9622L193.821 7.57047ZM40.5932 16.9998L41.1954 17.7981C41.5609 17.5225 41.6925 17.0339 41.5149 16.6119C41.3374 16.19 40.896 15.9425 40.4434 16.0111L40.5932 16.9998ZM34.6271 21.4999L34.0249 20.7016C33.6675 20.9712 33.5328 21.4455 33.6952 21.8627C33.8576 22.2799 34.2776 22.5383 34.7232 22.4953L34.6271 21.4999ZM133.068 11.9995L133.616 12.8359C134.001 12.5837 134.164 12.1016 134.011 11.6677C133.859 11.2338 133.43 10.96 132.972 11.0042L133.068 11.9995ZM120.864 19.9999L120.316 19.1636C119.919 19.4242 119.759 19.9286 119.935 20.3701C120.111 20.8117 120.574 21.0683 121.042 20.984L120.864 19.9999ZM1.14984 23.9887L40.7431 17.9885L40.4434 16.0111L0.850166 22.0113L1.14984 23.9887ZM39.991 16.2014L34.0249 20.7016L35.2293 22.2983L41.1954 17.7981L39.991 16.2014ZM34.7232 22.4953L133.164 12.9949L132.972 11.0042L34.5311 20.5046L34.7232 22.4953ZM132.52 11.1632L120.316 19.1636L121.413 20.8362L133.616 12.8359L132.52 11.1632ZM121.042 20.984L193.177 7.98413L192.823 6.01584L120.687 19.0157L121.042 20.984Z" fill="url(#paint0_linear_44_169)"/>
<defs>
<linearGradient id="paint0_linear_44_169" x1="194.085" y1="23.1671" x2="1" y2="23.1671" gradientUnits="userSpaceOnUse">
<stop stop-color="#806DE1"/>
<stop offset="1" stop-color="#806DE1" stop-opacity="0"/>
</linearGradient>
</defs>
</svg>
